<?xml version="1.0" standalone="no"?>
<!DOCTYPE svg PUBLIC "-//W3C//DTD SVG 20010904//EN"
 "http://www.w3.org/TR/2001/REC-SVG-20010904/DTD/svg10.dtd">
<svg version="1.0" xmlns="http://www.w3.org/2000/svg"
 width="256.000000pt" height="256.000000pt" viewBox="0 0 256.000000 256.000000"
 preserveAspectRatio="xMidYMid meet">

<g transform="translate(0.000000,256.000000) scale(0.100000,-0.100000)"
fill="#000000" stroke="none">
<path d="M213 2038 c-4 -7 -9 -302 -11 -656 -4 -604 -3 -644 13 -662 16 -18
32 -20 142 -20 98 0 123 -3 123 -14 0 -11 -47 -15 -241 -21 l-242 -7 6 -55 c4
-38 13 -63 28 -79 l22 -24 1227 0 1227 0 22 24 c15 16 24 41 28 79 l6 55 -242
7 c-194 6 -241 10 -241 21 0 11 25 14 123 14 110 0 126 2 142 20 16 18 17 58
13 662 -2 354 -7 649 -11 656 -12 18 -2122 18 -2134 0z m2047 -673 l0 -595
-980 0 -980 0 0 595 0 595 980 0 980 0 0 -595z m-320 -680 c0 -13 -80 -15
-660 -15 -580 0 -660 2 -660 15 0 13 80 15 660 15 580 0 660 -2 660 -15z"/>
<path d="M1215 1836 c-17 -7 -45 -29 -62 -50 l-32 -36 -96 0 -95 0 0 -65 0
-65 90 0 90 0 47 -49 c40 -41 56 -50 95 -56 39 -6 56 -3 95 16 27 13 57 38 68
56 l20 32 200 0 200 0 20 -32 c30 -48 103 -81 161 -72 80 12 144 86 144 166 0
86 -82 169 -166 169 -42 0 -115 -40 -139 -75 l-20 -30 -198 3 -198 2 -32 37
c-52 60 -125 78 -192 49z m109 -82 c24 -24 19 -43 -20 -80 l-35 -34 35 0 c25
0 36 -4 36 -15 0 -12 -13 -15 -60 -15 -50 0 -60 3 -60 18 0 9 18 33 41 52 37
33 39 37 25 50 -15 12 -18 11 -23 -8 -7 -28 -43 -30 -43 -3 0 28 27 51 60 51
16 0 36 -7 44 -16z m705 7 c18 -12 25 -129 10 -148 -26 -31 -109 -6 -109 33 0
19 36 18 44 -1 7 -20 25 -19 33 1 4 11 -1 22 -12 30 -18 14 -18 14 1 28 16 12
17 17 6 28 -11 11 -16 10 -26 -4 -13 -18 -46 -25 -46 -10 0 4 7 18 16 30 16
23 57 29 83 13z"/>
<path d="M410 1360 l0 -50 325 0 325 0 0 50 0 50 -325 0 -325 0 0 -50z"/>
<path d="M410 1110 l0 -150 645 0 645 0 0 150 0 150 -645 0 -645 0 0 -150z"/>
<path d="M1790 1000 l0 -50 165 0 165 0 0 50 0 50 -165 0 -165 0 0 -50z"/>
</g>
</svg>
